<svg xmlns="http://www.w3.org/2000/svg" width="26.093" height="30.316" viewBox="0 0 26.093 30.316">
  <g id="arrows" transform="translate(-17.2 -17.4)">
    <path id="Caminho_479" data-name="Caminho 479" d="M46.39,17.4a.867.867,0,0,0,.044.356c2.978,4.445,6,8.89,9.024,13.335a6.581,6.581,0,0,0,.356.578c.089.089.222.533.445.133.089.089.311.133.311.222a8.566,8.566,0,0,1-.044,1.067c-.044-.044-.133-.089-.178-.133a1.5,1.5,0,0,0-.533.178c-2,2.934-4,5.912-5.956,8.89-1.067,1.556-2.089,3.156-3.156,4.712a.565.565,0,0,0-.178.311c0,.667-.445.667-.889.667-1.334-.044-2.623-.044-3.956-.089a3.7,3.7,0,0,1-.578-.089,6.449,6.449,0,0,1,.445-.8c1.778-2.667,3.6-5.334,5.379-8,1.289-1.956,2.623-3.867,3.956-5.779a.744.744,0,0,0,0-.978c-1.867-2.712-3.645-5.423-5.468-8.135-1.156-1.689-2.267-3.423-3.423-5.112a9.994,9.994,0,0,0-.756-.933h4.223v-.133H42.3a4.216,4.216,0,0,1-1.022-.222C42.967,17.4,44.656,17.4,46.39,17.4Z" transform="translate(-13.276)" fill="#dbdbdb"/>
    <path id="Caminho_480" data-name="Caminho 480" d="M17.6,17.667c-.089-.089-.222-.178-.311-.267H22c0,.044-.044.133,0,.178.489.622,1.067,1.2,1.511,1.823,2.889,4.223,5.734,8.49,8.579,12.758a.567.567,0,0,1,0,.533C29.024,37.181,26,41.67,22.979,46.16c-.311.445-.489.933-.756,1.378a.374.374,0,0,1-.311.178c-1.511,0-3.023-.044-4.534-.089-.044,0-.044-.044-.178-.133a7.493,7.493,0,0,1,.533-1.245c3.023-4.49,6.045-8.979,9.068-13.424a.618.618,0,0,0,0-.845c-2.712-4-5.423-8-8.09-12.046-.4-.578-.8-1.156-1.156-1.734-.178-.133-.4-.4.044-.533h0Z" fill="#dbdbdb"/>
    <path id="Caminho_481" data-name="Caminho 481" d="M18.1,18h0Z" transform="translate(-0.5 -0.333)" fill="#dbdbdb"/>
  </g>
</svg>
