<svg class="sponsor-aws slick-slide slick-current slick-active" width="79" height="47" viewBox="0 0 110 66" fill="none" xmlns="http://www.w3.org/2000/svg" data-slick-index="0" aria-hidden="false" tabindex="0" style="width: 116px;">
    <g clip-path="url(#clip0_315_1940)">
    <path d="M31.2627 24.0791C31.2627 25.4209 31.4075 26.5088 31.6608 27.3066C31.9502 28.1044 32.3121 28.9748 32.8187 29.9176C32.9996 30.2077 33.072 30.4978 33.072 30.7517C33.072 31.1143 32.8549 31.4769 32.3845 31.8396L30.1049 33.3627C29.7792 33.5802 29.4535 33.689 29.1641 33.689C28.8022 33.689 28.4404 33.5077 28.0785 33.1813C27.572 32.6374 27.1377 32.0572 26.7759 31.4769C26.4141 30.8605 26.0522 30.1715 25.6542 29.3374C22.8318 32.6737 19.2858 34.3418 15.016 34.3418C11.9766 34.3418 9.55222 33.4715 7.77919 31.7308C6.00617 29.9901 5.10156 27.6693 5.10156 24.7682C5.10156 21.6857 6.18709 19.1835 8.39433 17.2978C10.6016 15.4121 13.5325 14.4693 17.2595 14.4693C18.4897 14.4693 19.7562 14.578 21.095 14.7594C22.4338 14.9407 23.8088 15.2308 25.2562 15.5572V12.9099C25.2562 10.1539 24.6772 8.23189 23.5555 7.10772C22.3976 5.98354 20.4437 5.43959 17.6575 5.43959C16.391 5.43959 15.0884 5.58464 13.7496 5.91101C12.4108 6.23739 11.1081 6.63629 9.84169 7.14398C9.26275 7.39783 8.82854 7.54288 8.57525 7.61541C8.32196 7.68794 8.14104 7.7242 7.9963 7.7242C7.48972 7.7242 7.23643 7.36156 7.23643 6.60003V4.8231C7.23643 4.24288 7.3088 3.80772 7.48972 3.55387C7.67064 3.30002 7.9963 3.04618 8.50288 2.79233C9.76933 2.13959 11.2891 1.59563 13.0621 1.16046C14.8351 0.689036 16.7167 0.471453 18.7068 0.471453C23.0127 0.471453 26.1608 1.45057 28.1871 3.40882C30.1772 5.36706 31.1904 8.34068 31.1904 12.3297V24.0791H31.2627ZM16.572 29.5912C17.766 29.5912 18.9963 29.3737 20.2989 28.9385C21.6016 28.5033 22.7595 27.7055 23.7364 26.6176C24.3154 25.9286 24.7496 25.1671 24.9667 24.2967C25.1838 23.4264 25.3285 22.3748 25.3285 21.1418V19.6187C24.2792 19.3649 23.1575 19.1473 21.9996 19.0022C20.8417 18.8572 19.72 18.7846 18.5983 18.7846C16.1739 18.7846 14.4009 19.2561 13.2068 20.2352C12.0127 21.2143 11.4338 22.5923 11.4338 24.4055C11.4338 26.1099 11.868 27.3791 12.7726 28.2495C13.641 29.1561 14.9075 29.5912 16.572 29.5912ZM45.6279 33.5077C44.9766 33.5077 44.5424 33.3989 44.2529 33.1451C43.9634 32.9275 43.7101 32.4198 43.493 31.7308L34.9897 3.69893C34.7726 2.97365 34.6641 2.50222 34.6641 2.24838C34.6641 1.66816 34.9535 1.34178 35.5325 1.34178H39.0785C39.766 1.34178 40.2364 1.45057 40.4897 1.70442C40.7792 1.922 40.9963 2.4297 41.2134 3.11871L47.2924 27.1253L52.9371 3.11871C53.118 2.39343 53.3351 1.922 53.6246 1.70442C53.9141 1.48684 54.4206 1.34178 55.072 1.34178H57.9667C58.6542 1.34178 59.1246 1.45057 59.4141 1.70442C59.7035 1.922 59.9568 2.4297 60.1016 3.11871L65.8187 27.4154L72.0785 3.11871C72.2956 2.39343 72.5489 1.922 72.8022 1.70442C73.0917 1.48684 73.5621 1.34178 74.2134 1.34178H77.5785C78.1575 1.34178 78.4831 1.63189 78.4831 2.24838C78.4831 2.4297 78.447 2.61101 78.4108 2.8286C78.3746 3.04618 78.3022 3.33629 78.1575 3.73519L69.4371 31.7671C69.22 32.4923 68.9667 32.9638 68.6772 33.1813C68.3877 33.3989 67.9174 33.544 67.3022 33.544H64.1904C63.5029 33.544 63.0325 33.4352 62.743 33.1813C62.4535 32.9275 62.2002 32.4561 62.0555 31.7308L56.447 8.34068L50.8746 31.6945C50.6937 32.4198 50.4766 32.8912 50.1871 33.1451C49.8976 33.3989 49.391 33.5077 48.7397 33.5077H45.6279ZM92.1246 34.4868C90.243 34.4868 88.3614 34.2693 86.5522 33.8341C84.743 33.3989 83.3318 32.9275 82.391 32.3835C81.8121 32.0572 81.4141 31.6945 81.2693 31.3682C81.1246 31.0418 81.0522 30.6791 81.0522 30.3528V28.5033C81.0522 27.7418 81.3417 27.3791 81.8845 27.3791C82.1016 27.3791 82.3187 27.4154 82.5358 27.4879C82.7529 27.5605 83.0785 27.7055 83.4404 27.8506C84.6706 28.3945 86.0095 28.8297 87.4206 29.1198C88.868 29.4099 90.2792 29.555 91.7266 29.555C94.0062 29.555 95.7792 29.1561 97.0095 28.3583C98.2397 27.5605 98.891 26.4 98.891 24.9132C98.891 23.8978 98.5654 23.0638 97.9141 22.3748C97.2627 21.6857 96.0325 21.0693 94.2595 20.489L89.0127 18.8572C86.3713 18.0231 84.4174 16.7901 83.2233 15.1583C82.0292 13.5627 81.4141 11.7857 81.4141 9.90002C81.4141 8.37695 81.7397 7.03519 82.391 5.87475C83.0424 4.71431 83.9108 3.69893 84.9963 2.90112C86.0818 2.06706 87.3121 1.45057 88.7595 1.01541C90.2068 0.580244 91.7266 0.398926 93.3187 0.398926C94.1147 0.398926 94.947 0.43519 95.743 0.543981C96.5752 0.652772 97.3351 0.797827 98.095 0.942882C98.8187 1.1242 99.5062 1.30552 100.157 1.5231C100.809 1.74068 101.315 1.95827 101.677 2.17585C102.184 2.46596 102.546 2.75607 102.763 3.08244C102.98 3.37255 103.088 3.77145 103.088 4.27915V5.98354C103.088 6.74508 102.799 7.14398 102.256 7.14398C101.967 7.14398 101.496 6.99893 100.881 6.70882C98.8187 5.76596 96.5029 5.29453 93.9338 5.29453C91.8713 5.29453 90.243 5.6209 89.1213 6.30991C87.9996 6.99893 87.4206 8.05057 87.4206 9.53739C87.4206 10.5528 87.7825 11.4231 88.5062 12.1121C89.2299 12.8011 90.5687 13.4901 92.4864 14.1066L97.6246 15.7385C100.23 16.5726 102.111 17.733 103.233 19.2198C104.355 20.7066 104.898 22.411 104.898 24.2967C104.898 25.8561 104.572 27.2704 103.957 28.5033C103.306 29.7363 102.437 30.8242 101.315 31.6945C100.194 32.6011 98.8549 33.2539 97.2989 33.7253C95.6706 34.233 93.97 34.4868 92.1246 34.4868Z" fill="black"></path>
    <path fill-rule="evenodd" clip-rule="evenodd" d="M98.9638 52.1111C87.0592 60.9232 69.7631 65.6012 54.8914 65.6012C34.0493 65.6012 15.2697 57.877 1.0855 45.0397C-0.0362151 44.0243 0.976943 42.6463 2.31576 43.4441C17.6579 52.365 36.5822 57.7683 56.1579 57.7683C69.3651 57.7683 83.875 55.0122 97.227 49.3551C99.2171 48.4485 100.918 50.6606 98.9638 52.1111Z" fill="black"></path>
    <path fill-rule="evenodd" clip-rule="evenodd" d="M103.921 46.454C102.401 44.4957 93.8613 45.5111 89.9896 45.9825C88.8317 46.1276 88.6508 45.1122 89.7001 44.3507C96.5028 39.5639 107.684 40.9419 108.986 42.5375C110.289 44.1693 108.624 55.3748 102.256 60.7419C101.279 61.5759 100.338 61.1408 100.773 60.0529C102.22 56.4628 105.44 48.3759 103.921 46.454Z" fill="black"></path>
    </g>
    <defs>
    <clipPath id="clip0_315_1940">
    <rect width="110" height="66" fill="white"></rect>
    </clipPath>
    </defs>
</svg>