<svg xmlns="http://www.w3.org/2000/svg" width="29.562" height="32" viewBox="0 0 29.562 32">
  <g id="sacolas" transform="translate(0.03)">
    <g id="Grupo_32" data-name="Grupo 32" transform="translate(-0.03)">
      <path id="Caminho_477" data-name="Caminho 477" d="M9.806,0h1.026c.031,0,.093.031.124.031a5.328,5.328,0,0,1,4.354,3.234,5.307,5.307,0,0,1,.466,2.208v.9h3.265c.218,0,.28.062.311.28.187,2.581.4,5.193.591,7.775.249,3.079.466,6.157.715,9.267.031.311,0,.373-.342.373h-20c-.342,0-.373-.031-.342-.373.218-2.768.435-5.535.653-8.334.218-2.892.435-5.784.653-8.707.031-.249.093-.311.342-.311H4.893v-1A5.487,5.487,0,0,1,8.842.155C9.122.124,9.464.062,9.806,0ZM6.386,6.375h7.837c0-.5.031-.964,0-1.431a3.943,3.943,0,0,0-7-1.959A4.661,4.661,0,0,0,6.386,6.375Z" transform="translate(0.03)" fill="#1a1a1a"/>
    </g>
    <g id="Grupo_33" data-name="Grupo 33" transform="translate(8.833 7.93)">
      <path id="Caminho_478" data-name="Caminho 478" d="M38.306,25.5h1.026c.031,0,.093.031.124.031a5.49,5.49,0,0,1,4.82,5.442v.9h3.265c.218,0,.28.062.311.28.187,2.581.4,5.193.591,7.775.249,3.079.466,6.157.715,9.267.031.311,0,.373-.342.373h-20c-.342,0-.373-.031-.342-.373.218-2.768.435-5.535.653-8.334.218-2.892.435-5.784.653-8.707.031-.249.093-.311.342-.311h3.265v-1a5.487,5.487,0,0,1,3.949-5.193C37.622,25.624,37.964,25.562,38.306,25.5Zm-3.421,6.375h7.837c0-.5.031-.964,0-1.431a3.943,3.943,0,0,0-7-1.959A4.7,4.7,0,0,0,34.886,31.875Z" transform="translate(-28.47 -25.5)" fill="#c505f2"/>
    </g>
  </g>
</svg>
